PathFileType	4	(X/Y/Z)	C:\Users\Basilio\Documents\Thesis Gigler\squatting_fais\c3dfiles\019\SLS_back_pre1\markers_experimental.trc
DataRate	CameraRate	NumFrames	NumMarkers	Units	OrigDataRate	OrigDataStartFrame	OrigNumFrames
200.000000	200.000000	4	59	mm	200.000000	180	1442
Frame#	Time	LBHD			RBHD			C7			T10			CLAV			LSHO			LUUPA			LMUPA			LDUPA			LLEP			LMEP			LRAD			LUL			LRFIN			RSHO			RUPA1			RMUPA			RDUPA			RLEP			RMEP			RRAD			RUL			RUFIN			LASI			RASI			USACR			LSACR			RSACR			LTHI1			LTHI2			LTHI3			LTHI4			LLFC			LTIB1			LTIB2			LTIB3			LTIB4			LLMAL			LMMAL			LHEE			LMT1			LMT2			LMT5			RTHI2			RTHI4			RLFC			RTIB1			RTIB2			RTIB3			RTIB4			RLMAL			RMMAL			RHEE			RMT1			RMT2			RMT5			FHD			RTHI			RTHI3			
		X1	Y1	Z1	X2	Y2	Z2	X3	Y3	Z3	X4	Y4	Z4	X5	Y5	Z5	X6	Y6	Z6	X7	Y7	Z7	X8	Y8	Z8	X9	Y9	Z9	X10	Y10	Z10	X11	Y11	Z11	X12	Y12	Z12	X13	Y13	Z13	X14	Y14	Z14	X15	Y15	Z15	X16	Y16	Z16	X17	Y17	Z17	X18	Y18	Z18	X19	Y19	Z19	X20	Y20	Z20	X21	Y21	Z21	X22	Y22	Z22	X23	Y23	Z23	X24	Y24	Z24	X25	Y25	Z25	X26	Y26	Z26	X27	Y27	Z27	X28	Y28	Z28	X29	Y29	Z29	X30	Y30	Z30	X31	Y31	Z31	X32	Y32	Z32	X33	Y33	Z33	X34	Y34	Z34	X35	Y35	Z35	X36	Y36	Z36	X37	Y37	Z37	X38	Y38	Z38	X39	Y39	Z39	X40	Y40	Z40	X41	Y41	Z41	X42	Y42	Z42	X43	Y43	Z43	X44	Y44	Z44	X45	Y45	Z45	X46	Y46	Z46	X47	Y47	Z47	X48	Y48	Z48	X49	Y49	Z49	X50	Y50	Z50	X51	Y51	Z51	X52	Y52	Z52	X53	Y53	Z53	X54	Y54	Z54	X55	Y55	Z55	X56	Y56	Z56	X57	Y57	Z57	X58	Y58	Z58	X59	Y59	Z59	

181	0.9	-383.1858520507813	1688.642700195313	-809.6516723632815	-382.9864501953126	1680.838623046875	-669.9096679687501	-415.6653442382814	1505.357299804688	-731.9066162109376	-452.2007141113282	1214.939453125	-743.4569091796876	-283.2309570312501	1455.270263671875	-748.0595092773439	-350.4845886230469	1495.995239257813	-891.0565185546877	-246.2496795654297	1403.899536132813	-956.179870605469	-212.5060272216797	1401.213500976563	-920.4390258789065	-186.5440216064453	1372.349487304688	-966.7875976562502	-141.6266326904297	1303.90283203125	-992.7048339843752	-156.5267639160157	1257.496215820313	-954.9978637695315	106.585922241211	1271.13525390625	-939.8509521484377	90.45779418945314	1221.99560546875	-981.2107543945315	180.4423828125	1264.911987304688	-956.277038574219	-319.3634033203126	1483.842041015625	-602.0876464843751	-226.7163238525391	1351.45166015625	-506.7715759277345	-189.7134246826172	1369.34814453125	-531.1470336914064	-165.9822845458985	1317.427001953125	-503.4281616210939	-99.2754821777344	1287.230834960938	-510.7627563476564	-124.5978012084961	1241.900634765625	-538.7305297851564	143.2159271240235	1252.7734375	-561.3075561523439	135.3176574707032	1201.891723632813	-516.5117797851564	219.6884918212891	1232.090576171875	-539.4472045898439	-301.0839538574219	1016.469665527344	-882.2380981445315	-277.6941528320313	1004.527404785156	-675.0142211914064	-451.086883544922	1081.41162109375	-754.6069335937501	-458.3871154785157	1050.347534179688	-784.201110839844	-451.1231689453126	1048.747192382813	-727.2160644531251	-324.4362182617188	764.5413818359376	-974.1177978515627	-272.5106811523438	697.0922851562501	-982.8890380859377	-227.6766815185547	709.8786621093751	-968.8367309570315	-286.3612060546876	637.8822631835939	-974.0267333984377	-275.6961669921876	544.4395141601564	-969.008728027344	-248.9555969238282	397.3203735351564	-951.5812988281252	-314.5502014160157	371.3143615722657	-1004.36962890625	-278.7065734863282	358.7687072753907	-983.194763183594	-295.6607971191407	277.7085571289063	-955.0853271484377	-394.7526855468751	170.1156158447266	-986.393737792969	-367.3205261230469	164.327133178711	-906.666442871094	-462.3757324218751	140.6592864990235	-933.4453125000002	-253.8928680419922	69.67272949218751	-936.4085083007815	-256.3712768554688	73.22879791259767	-977.8640747070315	-309.5488891601563	65.74655914306642	-1025.721923828125	-272.2278137207032	751.2976684570314	-618.2025146484376	-296.4251403808594	673.5811767578126	-621.3665771484376	-332.9812622070313	513.0935668945314	-656.5333251953126	-301.1300659179688	334.8443298339844	-729.5935668945314	-350.0356445312501	252.6559600830079	-672.9526367187501	-319.3081970214844	251.9335937500001	-709.2887573242189	-334.3635864257813	212.8364562988282	-751.0634155273439	-393.084930419922	127.9362716674805	-706.2845458984376	-381.2885437011719	134.3626403808594	-782.1840820312502	-458.2690429687501	106.1569519042969	-753.8333129882814	-260.4198608398438	54.88841247558595	-785.945983886719	-250.6518096923829	59.86883544921876	-739.5449829101564	-292.8581848144532	50.26814270019533	-684.5970458984376	-249.7383270263672	1714.805908203125	-670.1228637695314	-313.0632934570313	801.935729980469	-607.9788208007814	-247.8934020996094	760.5908203125001	-645.3765869140626	
182	0.905	-383.0895385742188	1688.712646484375	-809.060241699219	-382.9554138183594	1680.568969726563	-669.4138183593751	-415.815399169922	1505.34423828125	-731.3303222656251	-452.230926513672	1214.872192382813	-742.8802490234376	-283.3519592285157	1455.425048828125	-747.4468994140626	-350.5122070312501	1496.220581054688	-890.300476074219	-245.7244720458985	1405.326904296875	-955.5354614257815	-212.2307586669922	1402.83154296875	-919.7932128906252	-185.7259674072266	1374.4248046875	-966.0699462890627	-140.2926177978516	1306.60986328125	-992.1807861328127	-154.6070709228516	1259.8955078125	-954.6016845703127	108.2586059570313	1275.990112304688	-938.9226684570315	93.14895629882814	1226.657104492188	-980.317321777344	182.6266784667969	1270.56884765625	-955.1650390625002	-319.5261230468751	1484.070678710938	-601.6472167968751	-225.775619506836	1352.49365234375	-506.4016113281251	-189.1561584472657	1370.808471679688	-530.8510131835939	-165.1413879394532	1318.789184570313	-503.0765991210939	-97.98603057861331	1289.336303710938	-510.5084533691407	-122.8699569702149	1243.899536132813	-538.5404052734376	145.0155944824219	1257.479370117188	-561.4707641601564	137.4197998046875	1206.262573242188	-516.9248046875001	223.6128997802735	1237.311279296875	-545.1042480468751	-300.8985595703126	1016.902160644531	-882.2805175781252	-277.8176574707032	1004.465270996094	-674.5337524414064	-451.2980041503907	1081.368530273438	-754.1089477539064	-458.5420532226564	1050.34228515625	-783.7609863281252	-451.0199279785157	1048.671997070313	-726.8199462890626	-323.6299743652344	764.7896728515626	-973.637390136719	-271.4010925292969	697.4242553710939	-982.3715820312502	-226.7215270996094	710.4609985351564	-968.347595214844	-284.9136962890626	638.1273803710939	-973.4761962890627	-274.7560729980469	545.0529174804689	-968.392028808594	-248.2725830078126	397.611785888672	-951.228210449219	-314.6032409667969	372.0364379882813	-1003.480651855469	-278.9625244140626	359.4517211914063	-982.5262451171877	-296.3221130371094	278.3421325683594	-954.2886962890627	-396.1668701171876	171.468505859375	-984.9463500976565	-368.2868041992188	165.6091918945313	-905.3259887695315	-463.6230468750001	141.587142944336	-931.5118408203127	-255.4226684570313	71.16504669189455	-935.7595214843752	-257.1089782714844	74.33394622802736	-977.5476684570315	-311.3558044433594	67.3242874145508	-1024.922241210938	-272.3533020019532	751.2176513671876	-617.8065185546876	-296.4609680175782	673.4985961914064	-620.9472656250001	-332.8623352050782	513.0098876953126	-656.3222656250001	-301.0595703125001	334.7657775878907	-729.3930664062501	-349.9769592285157	252.5811767578126	-672.8906860351564	-319.2890014648438	251.8822021484376	-709.1157836914064	-334.3000488281251	212.7601776123047	-750.9187622070314	-393.036346435547	127.9103622436524	-706.2227172851564	-381.2593688964844	134.4076080322266	-782.1275024414065	-458.2966613769532	106.1412582397461	-753.8267211914064	-260.4313964843751	54.89575958251955	-785.9487304687502	-250.6156463623047	60.24897384643556	-739.2705078125001	-292.8630676269532	50.28102874755861	-684.5704345703126	-249.8155059814454	1714.849243164063	-669.6196899414064	-313.1816711425782	801.938903808594	-607.6564331054689	-247.8599395751954	760.7088012695314	-644.9607543945314	
183	0.91	-383.1204223632813	1688.8134765625	-808.5573730468752	-383.1238403320313	1680.514770507813	-668.8786010742189	-416.0364379882814	1505.425415039063	-730.6940307617189	-452.3087768554689	1214.92041015625	-742.2509765625001	-283.3108520507813	1455.57763671875	-746.8805541992189	-350.5874328613282	1496.453857421875	-889.4910888671877	-245.3494415283204	1406.853515625	-954.824401855469	-212.1123046875001	1404.332397460938	-918.813171386719	-184.8271636962891	1376.418334960938	-965.339538574219	-138.7651977539063	1309.102905273438	-991.6190185546877	-152.9034423828125	1262.309814453125	-954.2559204101565	109.875732421875	1280.573486328125	-937.9174804687502	95.28124237060548	1231.363525390625	-979.4661865234377	183.7861022949219	1276.4140625	-954.281188964844	-319.6666870117188	1484.307006835938	-601.2748413085939	-225.0857086181641	1353.676879882813	-506.0806579589845	-188.4808807373047	1372.309448242188	-530.6040649414064	-163.6573638916016	1320.962768554688	-503.2280883789064	-96.7726745605469	1291.853149414063	-510.404022216797	-121.1896362304688	1246.42041015625	-538.3674316406251	146.4200439453125	1261.916259765625	-561.6256713867189	139.4840698242188	1210.400024414063	-517.2316894531251	226.7451324462891	1242.3173828125	-542.5189208984376	-300.9312133789063	1017.15673828125	-881.9368286132815	-277.9512939453126	1004.453552246094	-674.1235961914064	-451.1932678222657	1081.472778320313	-753.5919799804689	-458.6943664550782	1050.462524414063	-783.2712402343752	-451.009490966797	1048.624145507813	-726.3535156250001	-322.5651245117188	764.9672241210939	-973.0376586914065	-270.3340148925782	697.7788085937501	-981.8381347656252	-225.6903839111329	711.1441650390626	-967.8047485351565	-283.6689453125001	638.5748901367189	-972.999450683594	-273.1376342773438	545.4304199218751	-967.709167480469	-247.6562652587891	398.0798645019532	-950.862976074219	-314.6265258789063	372.8975830078126	-1002.622314453125	-279.1453552246094	360.0292663574219	-981.723815917969	-297.3389282226563	279.4673767089844	-953.3607177734377	-398.2935180664064	172.8770599365235	-983.358337402344	-369.6706237792969	167.0401611328125	-903.8906250000002	-465.3680725097657	143.206039428711	-930.0057373046877	-256.6940307617188	72.41953277587892	-934.7324829101565	-259.4935607910157	75.9550018310547	-976.508728027344	-313.2192077636719	68.60298919677736	-1024.093994140625	-272.3522644042969	751.1330566406251	-617.4235839843751	-296.5401611328126	673.4127807617189	-620.5768432617189	-332.8953857421876	512.9091796875001	-656.1260986328126	-300.9967346191407	334.6954650878907	-729.2164916992189	-349.9814758300782	252.5600585937501	-672.7528076171876	-319.1994018554688	251.8268280029297	-708.9817504882814	-334.3229980468751	212.9746246337891	-750.7440185546876	-393.0379943847657	127.8954315185547	-706.1794433593751	-381.2980957031251	134.4283142089844	-782.0546875000002	-458.2684631347657	106.1688766479492	-753.8286743164064	-260.3947448730469	54.8767433166504	-785.9012451171877	-250.5508880615235	60.575008392334	-738.9563598632814	-292.8702697753907	50.23157501220705	-684.5505371093751	-249.825912475586	1714.878784179688	-668.8894653320314	-313.3135681152344	801.890808105469	-607.2861938476564	-248.0886688232422	760.5427246093751	-644.6562500000001	
184	0.915	-382.9892272949219	1688.916748046875	-807.9150390625002	-383.2277832031251	1680.629516601563	-668.2860107421876	-416.2303771972657	1505.43603515625	-730.0981445312501	-452.4498291015626	1214.947143554688	-741.7084960937501	-283.2834167480469	1455.695556640625	-746.2617187500001	-350.6208190917969	1496.71044921875	-888.7850341796877	-244.8677368164063	1408.13525390625	-954.1873168945315	-211.3848419189454	1406.114624023438	-918.239929199219	-184.1510009765625	1378.421264648438	-964.6701660156252	-137.2533416748047	1311.610717773438	-991.014587402344	-151.1835479736328	1264.614868164063	-953.854919433594	111.322982788086	1285.2822265625	-936.9253540039065	97.35508728027347	1235.968994140625	-978.6220703125002	185.8888092041016	1281.69140625	-953.1004638671877	-319.9117736816407	1484.521240234375	-600.8530883789064	-224.4981079101563	1355.000854492188	-505.8023071289064	-188.0052185058594	1373.823608398438	-530.3500976562501	-162.5920562744141	1322.818237304688	-503.0577697753907	-95.45337677001955	1294.072998046875	-510.3278198242189	-119.633056640625	1248.507202148438	-538.1013183593751	147.7561492919922	1266.412841796875	-561.9259033203126	141.3854370117188	1214.680297851563	-517.7023925781251	225.5630035400391	1247.753173828125	-540.9285278320314	-300.9752807617188	1017.402221679688	-881.5271606445315	-277.9962768554688	1004.496032714844	-673.6775512695314	-451.5900878906251	1081.322021484375	-753.0682983398439	-458.6558532714845	1050.4482421875	-782.8503417968752	-450.9000244140626	1048.535034179688	-725.9886474609376	-321.6971740722657	765.1837768554689	-972.539245605469	-269.1732482910157	698.3726806640626	-981.2630615234377	-224.5786895751954	711.7208862304689	-967.2444458007815	-282.3489990234376	639.0588378906251	-972.5759887695315	-271.6973571777344	545.8435668945314	-967.1482543945315	-247.5347900390626	398.6605529785157	-950.4238281250002	-315.1163024902344	373.8423461914063	-1001.696594238281	-279.1555480957032	360.6539611816407	-981.0488891601565	-298.0564575195313	280.3123168945313	-952.4692382812502	-399.5804748535157	174.1314239501953	-981.728210449219	-370.8133544921876	168.4947052001953	-902.338317871094	-466.8886108398439	144.5014190673828	-927.5300903320315	-258.2999572753907	73.92417144775392	-933.8972778320315	-260.6675720214844	77.26807403564455	-975.738708496094	-315.4300842285157	70.19485473632814	-1022.534484863281	-272.4050598144532	751.0794067382814	-617.0975952148439	-296.4447021484376	673.3907470703126	-620.2738647460939	-332.8575439453126	512.9584350585939	-655.8983154296876	-300.8747558593751	334.6531982421876	-728.9725952148439	-350.0438232421876	252.5513763427735	-672.7133178710939	-319.1130981445313	251.8070831298829	-708.8170776367189	-334.2567443847657	212.9914703369141	-750.5460205078126	-393.0845336914064	127.8992004394532	-706.1364135742189	-381.1629943847657	134.408935546875	-781.9677734375002	-458.2307128906251	106.1351089477539	-753.7852783203126	-260.3930358886719	54.87556076049806	-785.9008789062502	-250.473617553711	60.92162322998048	-738.6917114257814	-292.8291015625001	50.19314193725587	-684.5462646484376	-249.8789825439454	1714.5791015625	-668.0264282226564	-313.3619689941407	801.7647705078127	-606.9708251953126	-248.1395416259766	760.4402465820314	-644.2151489257814	
